<svg xmlns="http://www.w3.org/2000/svg" width="269" height="89" viewBox="0 0 269 89">
  <g id="logo" transform="translate(-264 -360)">
    <text id="Snoozy" transform="translate(264 430)" fill="#72bfa5" font-size="74" font-weight="500" font-family="Choplin-Medium-DEMO, Choplin DEMO"><tspan x="0" y="0">Snoozy</tspan></text>
    <g id="alarm-clock" transform="translate(357.663 382.988) rotate(-3)">
      <g id="Group_1" data-name="Group 1" transform="translate(0 4.253) rotate(-5)">
        <path id="Path_1" data-name="Path 1" d="M4.709,17.356a23.814,23.814,0,0,1,14.3-10.093,1.466,1.466,0,0,0,.9-2.2,10.774,10.774,0,1,0-17.579,12.4,1.469,1.469,0,0,0,2.378-.107Z" transform="translate(0 0)" fill="#72bfa5"/>
        <path id="Path_2" data-name="Path 2" d="M9.329,0a10.753,10.753,0,0,0-9.1,5.021,1.466,1.466,0,0,0,.9,2.211A23.8,23.8,0,0,1,15.494,17.249a1.469,1.469,0,0,0,2.385.085A10.77,10.77,0,0,0,9.329,0Z" transform="translate(28.689 0)" fill="#72bfa5"/>
      </g>
    </g>
  </g>
</svg>
